<svg width="26" height="26" viewBox="0 0 26 26" fill="none" xmlns="http://www.w3.org/2000/svg">
<g clip-path="url(#clip0_13_1474)">
<path d="M9.35734 0.499805H3.65334C2.82668 0.499805 2.13779 0.77536 1.58668 1.32647C1.03557 1.87758 0.76001 2.56647 0.76001 3.39314V9.09714C0.76001 9.86869 1.03557 10.53 1.58668 11.0811C2.13779 11.6322 2.82668 11.9078 3.65334 11.9078H9.35734C10.1289 11.9078 10.7902 11.6322 11.3413 11.0811C11.8925 10.53 12.168 9.86869 12.168 9.09714V3.39314C12.168 2.56647 11.8925 1.87758 11.3413 1.32647C10.7902 0.77536 10.1289 0.499805 9.35734 0.499805ZM10.2667 9.09714C10.2667 9.31758 10.1702 9.52425 9.97734 9.71714C9.78445 9.91003 9.57779 10.0065 9.35734 10.0065H3.65334C3.37779 10.0065 3.14357 9.91003 2.95068 9.71714C2.75779 9.52425 2.66134 9.31758 2.66134 9.09714V3.39314C2.66134 3.11758 2.75779 2.88336 2.95068 2.69047C3.14357 2.49758 3.37779 2.40114 3.65334 2.40114H9.35734C9.57779 2.40114 9.78445 2.49758 9.97734 2.69047C10.1702 2.88336 10.2667 3.11758 10.2667 3.39314V9.09714ZM22.6667 0.499805H17.0453C16.2187 0.499805 15.5298 0.789139 14.9787 1.36781C14.4276 1.94647 14.152 2.62158 14.152 3.39314V9.01447C14.152 9.84114 14.4276 10.53 14.9787 11.0811C15.5298 11.6322 16.2187 11.9078 17.0453 11.9078H22.6667C23.4382 11.9078 24.1133 11.6322 24.692 11.0811C25.2707 10.53 25.56 9.84114 25.56 9.01447V3.39314C25.56 2.62158 25.2707 1.94647 24.692 1.36781C24.1133 0.789139 23.4382 0.499805 22.6667 0.499805ZM23.6587 9.01447C23.6587 9.29003 23.5622 9.52425 23.3693 9.71714C23.1765 9.91003 22.9422 10.0065 22.6667 10.0065H17.0453C16.7698 10.0065 16.5356 9.91003 16.3427 9.71714C16.1498 9.52425 16.0533 9.29003 16.0533 9.01447V3.39314C16.0533 3.11758 16.1498 2.88336 16.3427 2.69047C16.5356 2.49758 16.7698 2.40114 17.0453 2.40114H22.6667C22.9422 2.40114 23.1765 2.49758 23.3693 2.69047C23.5622 2.88336 23.6587 3.11758 23.6587 3.39314V9.01447ZM9.35734 13.8918H3.65334C2.82668 13.8918 2.13779 14.1674 1.58668 14.7185C1.03557 15.2696 0.76001 15.9309 0.76001 16.7025V22.4065C0.76001 23.2331 1.03557 23.922 1.58668 24.4731C2.13779 25.0242 2.82668 25.2998 3.65334 25.2998H9.35734C10.1289 25.2998 10.7902 25.0242 11.3413 24.4731C11.8925 23.922 12.168 23.2331 12.168 22.4065V16.7025C12.168 15.9309 11.8925 15.2696 11.3413 14.7185C10.7902 14.1674 10.1289 13.8918 9.35734 13.8918ZM10.2667 22.4065C10.2667 22.682 10.1702 22.9162 9.97734 23.1091C9.78445 23.302 9.57779 23.3985 9.35734 23.3985H3.65334C3.37779 23.3985 3.14357 23.302 2.95068 23.1091C2.75779 22.9162 2.66134 22.682 2.66134 22.4065V16.7025C2.66134 16.482 2.75779 16.2754 2.95068 16.0825C3.14357 15.8896 3.37779 15.7931 3.65334 15.7931H9.35734C9.57779 15.7931 9.78445 15.8896 9.97734 16.0825C10.1702 16.2754 10.2667 16.482 10.2667 16.7025V22.4065ZM22.6667 13.8918H17.0453C16.2187 13.8918 15.5298 14.1674 14.9787 14.7185C14.4276 15.2696 14.152 15.9585 14.152 16.7851V22.4065C14.152 23.178 14.4276 23.8531 14.9787 24.4318C15.5298 25.0105 16.2187 25.2998 17.0453 25.2998H22.6667C23.4382 25.2998 24.1133 25.0105 24.692 24.4318C25.2707 23.8531 25.56 23.178 25.56 22.4065V16.7851C25.56 15.9585 25.2707 15.2696 24.692 14.7185C24.1133 14.1674 23.4382 13.8918 22.6667 13.8918ZM23.6587 22.4065C23.6587 22.682 23.5622 22.9162 23.3693 23.1091C23.1765 23.302 22.9422 23.3985 22.6667 23.3985H17.0453C16.7698 23.3985 16.5356 23.302 16.3427 23.1091C16.1498 22.9162 16.0533 22.682 16.0533 22.4065V16.7851C16.0533 16.5096 16.1498 16.2754 16.3427 16.0825C16.5356 15.8896 16.7698 15.7931 17.0453 15.7931H22.6667C22.9422 15.7931 23.1765 15.8896 23.3693 16.0825C23.5622 16.2754 23.6587 16.5096 23.6587 16.7851V22.4065Z" fill="#203635"/>
</g>
<defs>
<clipPath id="clip0_13_1474">
<rect width="25" height="24.8" fill="white" transform="matrix(1 0 0 -1 0.659912 25.2998)"/>
</clipPath>
</defs>
</svg>
