<svg width="51" height="50" viewBox="0 0 51 50" fill="none" xmlns="http://www.w3.org/2000/svg">
<rect x="0.460205" width="50" height="50" rx="25" fill="#203635"/>
<g clip-path="url(#clip0_13_1482)">
<path d="M32.6523 27.8758C32.1562 27.3247 31.5776 27.0491 30.9163 27.0491C30.2549 27.0491 29.6487 27.3247 29.0976 27.8758L27.4442 29.5291L26.5349 29.0331C24.9918 28.0411 23.5589 26.7185 22.2362 25.0651C21.5749 24.2936 21.1065 23.5496 20.8309 22.8331L22.4843 21.2625C23.0354 20.7114 23.3109 20.1051 23.3109 19.4438C23.3109 18.7825 23.0354 18.1762 22.4843 17.6251L19.5909 14.7318C19.0398 14.1807 18.4474 13.9051 17.8136 13.9051C17.1798 13.9051 16.5874 14.1807 16.0362 14.7318L14.2176 16.5505C13.5562 17.2118 13.1705 18.0109 13.0602 18.9478C13.0051 20.1051 13.2531 21.4002 13.8042 22.8331C14.6309 25.0927 15.9536 27.3247 17.7722 29.5291C20.0869 32.2847 22.8149 34.4065 25.9562 35.8945C27.7198 36.7211 29.2629 37.1896 30.5856 37.2998H30.9163C32.1287 37.2998 33.1207 36.8589 33.8923 35.9771H33.9749C34.1402 35.7567 34.4158 35.4536 34.8016 35.0678L35.5456 34.3238C36.0967 33.7727 36.3722 33.1665 36.3722 32.5051C36.3722 31.8438 36.0967 31.2651 35.5456 30.7691L32.6523 27.8758ZM34.5536 33.4145L33.8923 33.9931C33.4514 34.434 33.1207 34.7922 32.9002 35.0678C32.3491 35.6189 31.6878 35.8945 30.9163 35.8945H30.6682C29.5109 35.8394 28.1607 35.426 26.6176 34.6545C23.6416 33.2216 21.0514 31.21 18.8469 28.6198C17.1385 26.5256 15.8985 24.4314 15.1269 22.3371C14.6309 21.0696 14.438 19.9674 14.5482 19.0305C14.6034 18.4242 14.8238 17.9282 15.2096 17.5425L17.0282 15.7238C17.3038 15.4482 17.5656 15.3105 17.8136 15.3105C18.0616 15.3105 18.3234 15.4482 18.5989 15.7238L21.4922 18.6171C21.9882 19.1682 21.9882 19.6918 21.4922 20.1878L20.9962 20.6838C20.5002 21.2349 20.0594 21.6482 19.6736 21.9238V22.0065C19.3429 22.3371 19.2602 22.7229 19.4256 23.1638V23.2465C19.7562 24.0731 20.3074 24.9825 21.0789 25.9745C22.5118 27.738 24.0825 29.1434 25.7909 30.1905L26.9482 30.8518C27.1687 30.962 27.3891 31.0171 27.6096 31.0171C27.83 31.0171 28.0505 30.8794 28.2709 30.6038L30.0896 28.8678C30.3651 28.5922 30.6269 28.4545 30.8749 28.4545C31.1229 28.4545 31.3847 28.5922 31.6602 28.8678L34.5536 31.7611C35.0496 32.2571 35.0496 32.8082 34.5536 33.4145ZM26.4522 18.3691C27.83 18.6447 29.0287 19.2785 30.0483 20.2705C31.0678 21.2625 31.6878 22.4749 31.9082 23.9078C31.9634 24.0731 32.0598 24.2109 32.1976 24.3211C32.3354 24.4314 32.4869 24.4865 32.6523 24.4865H32.7349C32.9554 24.4314 33.1207 24.3211 33.2309 24.1558C33.3411 23.9905 33.3687 23.8251 33.3136 23.6598C33.038 21.9514 32.294 20.4909 31.0816 19.2785C29.8691 18.066 28.4087 17.322 26.7002 17.0465C26.5349 16.9914 26.3696 17.0189 26.2042 17.1291C26.0389 17.2394 25.9425 17.3909 25.9149 17.5838C25.8874 17.7767 25.9287 17.9558 26.0389 18.1211C26.1491 18.2865 26.2869 18.3691 26.4522 18.3691ZM37.8602 23.4118C37.3643 20.6562 36.1105 18.2727 34.0989 16.2611C32.0874 14.2496 29.6762 12.9958 26.8656 12.4998C26.7002 12.4998 26.5349 12.5549 26.3696 12.6651C26.2042 12.7754 26.1078 12.9269 26.0802 13.1198C26.0527 13.3127 26.094 13.478 26.2042 13.6158C26.3145 13.7536 26.4798 13.85 26.7002 13.9051C29.1803 14.346 31.3158 15.462 33.1069 17.2531C34.898 19.0442 36.014 21.1798 36.4549 23.6598C36.4549 23.8251 36.5238 23.9629 36.6616 24.0731C36.7994 24.1834 36.9509 24.2385 37.1162 24.2385H37.2816C37.4469 24.2385 37.5847 24.1558 37.6949 23.9905C37.8051 23.8251 37.8602 23.6322 37.8602 23.4118Z" fill="#FCA028"/>
</g>
<defs>
<clipPath id="clip0_13_1482">
<rect width="25" height="24.8" fill="white" transform="matrix(1 0 0 -1 12.9602 37.2998)"/>
</clipPath>
</defs>
</svg>
